<?xml version="1.0" encoding="utf-8"?>
<svg width="382" height="321" viewBox="0 0 382 321" xmlns="http://www.w3.org/2000/svg">
<rect id="frame" x="0" y="0" width="382" height="321" fill="#f7f7f7" stroke="none" stroke-width="0"/>

<!-- Association CRÉE -->
<g class="page_0_H7gyKKoe diagram_page" visibility="visible">
	<line x1="63" y1="68" x2="198" y2="68" stroke="#e08214" stroke-width="2"/>
	<text x="122" y="85" fill="#542788" font-family="Verdana" font-size="12">0,N</text>
	<line x1="334" y1="68" x2="198" y2="68" stroke="#e08214" stroke-width="2"/>
	<text x="272" y="85" fill="#542788" font-family="Verdana" font-size="12">1,1</text>
	<g>
		<path d="M208 43 a14 14 90 0 1 14 14 V68 h-48 V57 a14 14 90 0 1 14 -14" fill="#fdb863" stroke="#fdb863" stroke-width="0"/>
		<path d="M222 68 v11 a14 14 90 0 1 -14 14 H188 a14 14 90 0 1 -14 -14 V68 H48" fill="#fee0b6" stroke="#fee0b6" stroke-width="0"/>
		<rect x="174" y="43" width="48" height="50" fill="none" rx="14" stroke="#e08214" stroke-width="2"/>
		<line x1="174" y1="68" x2="222" y2="68" stroke="#e08214" stroke-width="1"/>
		<text x="182" y="60.75" fill="#000" font-family="Verdana" font-size="12">CRÉE</text>
	</g>
</g>

<!-- Association POSSÈDE -->
<g class="page_0_H7gyKKoe diagram_page" visibility="visible">
	<line x1="334" y1="68" x2="334" y2="160" stroke="#e08214" stroke-width="2"/>
	<text x="339" y="127" fill="#542788" font-family="Verdana" font-size="12">0,N</text>
	<line x1="334" y1="261" x2="334" y2="160" stroke="#e08214" stroke-width="2"/>
	<text x="339" y="202" fill="#542788" font-family="Verdana" font-size="12">1,1</text>
	<g>
		<path d="M357 135 a14 14 90 0 1 14 14 V160 h-74 V149 a14 14 90 0 1 14 -14" fill="#fdb863" stroke="#fdb863" stroke-width="0"/>
		<path d="M371 160 v11 a14 14 90 0 1 -14 14 H311 a14 14 90 0 1 -14 -14 V160 H74" fill="#fee0b6" stroke="#fee0b6" stroke-width="0"/>
		<rect x="297" y="135" width="74" height="50" fill="none" rx="14" stroke="#e08214" stroke-width="2"/>
		<line x1="297" y1="160" x2="371" y2="160" stroke="#e08214" stroke-width="1"/>
		<text x="305" y="152.75" fill="#000" font-family="Verdana" font-size="12">POSSÈDE</text>
	</g>
</g>

<!-- Association CATÉGORISÉE PAR -->
<g class="page_0_H7gyKKoe diagram_page" visibility="visible">
	<line x1="334" y1="261" x2="198" y2="261" stroke="#e08214" stroke-width="2"/>
	<text x="268" y="278" fill="#542788" font-family="Verdana" font-size="12">0,N</text>
	<line x1="63" y1="261" x2="198" y2="261" stroke="#e08214" stroke-width="2"/>
	<text x="106" y="278" fill="#542788" font-family="Verdana" font-size="12">0,N</text>
	<g>
		<path d="M249 236 a14 14 90 0 1 14 14 V261 h-130 V250 a14 14 90 0 1 14 -14" fill="#fdb863" stroke="#fdb863" stroke-width="0"/>
		<path d="M263 261 v11 a14 14 90 0 1 -14 14 H147 a14 14 90 0 1 -14 -14 V261 H130" fill="#fee0b6" stroke="#fee0b6" stroke-width="0"/>
		<rect x="133" y="236" width="130" height="50" fill="none" rx="14" stroke="#e08214" stroke-width="2"/>
		<line x1="133" y1="261" x2="263" y2="261" stroke="#e08214" stroke-width="1"/>
		<text x="140" y="253.75" fill="#000" font-family="Verdana" font-size="12">CATÉGORISÉE PAR</text>
	</g>
</g>

<!-- Entity UTILISATEUR -->
<g class="page_0_H7gyKKoe diagram_page" visibility="visible">
	<g>
		<rect x="9" y="9" width="108" height="25" fill="#b2abd2" stroke="#b2abd2" stroke-width="0" opacity="1"/>
		<rect x="9" y="34" width="108" height="93" fill="#d8daeb" stroke="#d8daeb" stroke-width="0" opacity="1"/>
		<rect x="9" y="9" width="108" height="118" fill="none" stroke="#8073ac" stroke-width="2" opacity="1"/>
		<line x1="9" y1="34" x2="117" y2="34" stroke="#8073ac" stroke-width="1"/>
	</g>
	<text x="22" y="26.75" fill="#000" font-family="Verdana" font-size="12">UTILISATEUR</text>
	<text x="14" y="51.8" fill="#000" font-family="Verdana" font-size="12">code_utilisateur</text>
	<line x1="14" y1="54" x2="111" y2="54" stroke="#000" stroke-width="1"/>
	<text x="14" y="68.8" fill="#000" font-family="Verdana" font-size="12">email</text>
	<text x="14" y="85.8" fill="#000" font-family="Verdana" font-size="12">mot_de_passe</text>
	<text x="14" y="102.8" fill="#000" font-family="Verdana" font-size="12">prénom</text>
	<text x="14" y="119.8" fill="#000" font-family="Verdana" font-size="12">nom</text>
</g>

<!-- Entity LISTE -->
<g class="page_0_H7gyKKoe diagram_page" visibility="visible">
	<g>
		<rect x="298" y="26" width="72" height="25" fill="#b2abd2" stroke="#b2abd2" stroke-width="0" opacity="1"/>
		<rect x="298" y="51" width="72" height="59" fill="#d8daeb" stroke="#d8daeb" stroke-width="0" opacity="1"/>
		<rect x="298" y="26" width="72" height="84" fill="none" stroke="#8073ac" stroke-width="2" opacity="1"/>
		<line x1="298" y1="51" x2="370" y2="51" stroke="#8073ac" stroke-width="1"/>
	</g>
	<text x="316" y="43.75" fill="#000" font-family="Verdana" font-size="12">LISTE</text>
	<text x="303" y="68.8" fill="#000" font-family="Verdana" font-size="12">code_liste</text>
	<line x1="303" y1="71" x2="365" y2="71" stroke="#000" stroke-width="1"/>
	<text x="303" y="85.8" fill="#000" font-family="Verdana" font-size="12">titre</text>
	<text x="303" y="102.8" fill="#000" font-family="Verdana" font-size="12">ordre</text>
</g>

<!-- Entity LABEL -->
<g class="page_0_H7gyKKoe diagram_page" visibility="visible">
	<g>
		<rect x="25" y="219" width="76" height="25" fill="#b2abd2" stroke="#b2abd2" stroke-width="0" opacity="1"/>
		<rect x="25" y="244" width="76" height="59" fill="#d8daeb" stroke="#d8daeb" stroke-width="0" opacity="1"/>
		<rect x="25" y="219" width="76" height="84" fill="none" stroke="#8073ac" stroke-width="2" opacity="1"/>
		<line x1="25" y1="244" x2="101" y2="244" stroke="#8073ac" stroke-width="1"/>
	</g>
	<text x="44" y="236.75" fill="#000" font-family="Verdana" font-size="12">LABEL</text>
	<text x="30" y="261.8" fill="#000" font-family="Verdana" font-size="12">code_label</text>
	<line x1="30" y1="264" x2="95" y2="264" stroke="#000" stroke-width="1"/>
	<text x="30" y="278.8" fill="#000" font-family="Verdana" font-size="12">titre</text>
	<text x="30" y="295.8" fill="#000" font-family="Verdana" font-size="12">couleur</text>
</g>

<!-- Entity CARTE -->
<g class="page_0_H7gyKKoe diagram_page" visibility="visible">
	<g>
		<rect x="295" y="210" width="78" height="25" fill="#b2abd2" stroke="#b2abd2" stroke-width="0" opacity="1"/>
		<rect x="295" y="235" width="78" height="77" fill="#d8daeb" stroke="#d8daeb" stroke-width="0" opacity="1"/>
		<rect x="295" y="210" width="78" height="102" fill="none" stroke="#8073ac" stroke-width="2" opacity="1"/>
		<line x1="295" y1="235" x2="373" y2="235" stroke="#8073ac" stroke-width="1"/>
	</g>
	<text x="314" y="227.75" fill="#000" font-family="Verdana" font-size="12">CARTE</text>
	<text x="300" y="252.8" fill="#000" font-family="Verdana" font-size="12">code_carte</text>
	<line x1="300" y1="255" x2="367" y2="255" stroke="#000" stroke-width="1"/>
	<text x="300" y="269.8" fill="#000" font-family="Verdana" font-size="12">titre</text>
	<text x="300" y="286.8" fill="#000" font-family="Verdana" font-size="12">couleur</text>
	<text x="300" y="303.8" fill="#000" font-family="Verdana" font-size="12">ordre</text>
</g>
</svg>